<svg width="126" height="71" viewBox="0 0 126 71" xmlns="http://www.w3.org/2000/svg" xmlns:xlink="http://www.w3.org/1999/xlink"><title>AS-logo-header-desktop</title><defs><path id="a" d="M-12 83h150v-95H-12z"/></defs><g fill="none" fill-rule="evenodd"><path d="M86.427 5.691a2.774 2.774 0 1 1-5.55.002 2.774 2.774 0 0 1 5.55-.002z" fill="#FFFFFF"/><path d="M99.274 6.994c-.933-2.073-4.767-3.157-10.886-2.772.093.3.158.612.193.933 3.953.189 6.369 1.17 6.759 2.632.628 2.35-4.316 6.057-13.35 9.995C81.168 7.98 72.935.299 62.928.336 53.256.37 45.294 7.605 44.095 16.945c-11.692 6.19-18.851 12.474-17.108 16.353 1.294 2.877 8.395 3.922 19.649 1.498a6.333 6.333 0 0 1-.371-.77c-8.995 1.368-14.748.329-15.344-1.522-.762-2.366 4.535-6.22 13.949-10.254l.01-.008c2.845-1.227 13.049-5.47 25.113-8.631.148-.04.232.174.094.238C58.973 18.995 51.324 24.465 50 28.647c-1.707 5.392 5.385 9.837 13.066 9.809 9.039-.033 16.584-6.352 18.513-14.801 12.038-6.29 19.466-12.718 17.694-16.661" fill="#FFFFFF"/><path d="M33.123 68.153c0 .848-.77 1.426-1.799 1.426-.61 0-1.31-.27-1.31-1.015 0-.7.617-1.066 1.554-1.066.604 0 1.157.115 1.555.27v.385zm-1.478-4.433c-1.105 0-1.837.231-2.583.565l.425 1.247c.616-.257 1.182-.424 1.94-.424 1.08 0 1.67.514 1.67 1.452v.128a5.707 5.707 0 0 0-1.875-.283c-1.48 0-2.75.641-2.75 2.236 0 1.396 1.15 2.107 2.415 2.107 1.028 0 1.735-.423 2.197-.976v.835h1.542v-4.022c0-1.81-.976-2.865-2.98-2.865zm16.363 4.433c0 .848-.77 1.426-1.799 1.426-.61 0-1.31-.27-1.31-1.015 0-.7.617-1.066 1.554-1.066.604 0 1.157.115 1.555.27v.385zM46.53 63.72c-1.105 0-1.837.231-2.583.565l.425 1.247c.616-.257 1.181-.424 1.94-.424 1.08 0 1.67.514 1.67 1.452v.128a5.713 5.713 0 0 0-1.876-.283c-1.48 0-2.75.641-2.75 2.236 0 1.396 1.15 2.107 2.416 2.107 1.028 0 1.735-.423 2.197-.976v.835h1.542v-4.022c0-1.81-.976-2.865-2.98-2.865zm16.325 3.02c-.103-1.002-.694-1.786-1.722-1.786-.951 0-1.619.733-1.76 1.786h3.482zm-5.024.488c0-1.948 1.367-3.546 3.315-3.546 2.159 0 3.251 1.696 3.251 3.649 0 .14-.013.283-.026.437h-4.986c.167 1.105.951 1.722 1.953 1.722.759 0 1.298-.283 1.838-.81l.912.81c-.642.77-1.528 1.272-2.775 1.272-1.982 0-3.482-1.436-3.482-3.534z" fill="#FFF"/><mask id="b" fill="#fff"><use xlink:href="#a"/></mask><path fill="#FFF" mask="url(#b)" d="M40.75 70.607h1.555v-6.784H40.75zm10.041-6.784h1.555v1.053c.437-.642 1.067-1.194 2.12-1.194 1.529 0 2.416 1.027 2.416 2.608v4.317h-1.555v-3.854c0-1.054-.527-1.658-1.452-1.658-.899 0-1.529.63-1.529 1.683v3.829h-1.555v-6.784zm-13.313 1.529v-1.53h-1.555v6.785h1.555v-2.582c0-1.68.85-2.722 2.404-2.686v-1.644c-1.195-.052-1.98.642-2.404 1.657m31.155 1.63v.748H70.7v1.651c-.45.382-1.175.661-1.959.661-1.654 0-2.699-1.253-2.699-2.835 0-1.527 1.074-2.818 2.592-2.818.97 0 1.557.322 2.085.782l.5-.588c-.686-.577-1.4-.917-2.556-.917-2.056 0-3.436 1.681-3.436 3.561 0 1.958 1.331 3.537 3.485 3.537a4.153 4.153 0 0 0 2.751-1.05v-2.732h-2.829zm11.581 3.059c-1.51 0-2.682-1.245-2.682-2.839 0-1.599 1.179-2.812 2.656-2.812 1.513 0 2.682 1.245 2.682 2.838 0 1.58-1.153 2.813-2.656 2.813m0-6.375c-1.974 0-3.497 1.568-3.497 3.562 0 1.975 1.505 3.537 3.47 3.537 1.979 0 3.498-1.568 3.498-3.563 0-1.992-1.524-3.536-3.471-3.536m9.711 4.072c0 1.32-.968 2.316-2.25 2.316-1.288 0-2.056-.826-2.056-2.212v-4.02h-.763v4.138c0 1.704 1.07 2.805 2.727 2.805 1.018 0 1.804-.417 2.342-1.24v1.083h.763v-6.785h-.763v3.915zm4.94-.185h-1.694v-3.025h1.734c1.106 0 1.808.528 1.808 1.507 0 .901-.712 1.518-1.848 1.518m.098-3.73h-2.555v6.784h.763v-2.349h1.665c1.46 0 2.692-.774 2.692-2.252 0-1.35-1.018-2.183-2.565-2.183m-18.369-.109c-.71-.02-2.05.314-2.83 1.796v-1.688h-.762v6.787h.763v-2.792c0-2.485 1.67-3.31 2.829-3.308v-.795zm20.983-9.904c0 1.542-1.402 2.593-3.271 2.593-1.11 0-2.383-.493-2.383-1.845 0-1.274 1.122-1.94 2.827-1.94 1.098 0 2.103.21 2.827.49v.702zm-2.687-8.06c-2.01 0-3.341.42-4.696 1.028l.77 2.266c1.122-.467 2.15-.771 3.529-.771 1.962 0 3.037.934 3.037 2.64v.234c-.958-.304-1.915-.514-3.411-.514-2.69 0-5 1.164-5 4.065 0 2.537 2.09 3.83 4.393 3.83 1.869 0 3.153-.77 3.995-1.775v1.519h2.803V50.96c0-3.294-1.775-5.21-5.42-5.21zm16.747 8.807c-.888.911-1.87 1.542-3.201 1.542-2.19 0-3.691-1.787-3.691-3.995 0-2.149 1.47-3.948 3.55-3.948 1.426 0 2.337.631 3.2 1.542l1.754-1.892c-1.145-1.262-2.593-2.127-4.93-2.127-3.71 0-6.401 2.96-6.401 6.472 0 3.517 2.689 6.401 6.378 6.401 2.406 0 3.83-.958 5.046-2.313l-1.705-1.682zm11.224-3.317c-.187-1.822-1.262-3.247-3.13-3.247-1.729 0-2.944 1.33-3.202 3.247h6.332zm-9.135.888c0-3.543 2.486-6.448 6.028-6.448 3.925 0 5.91 3.084 5.91 6.635 0 .257-.023.514-.046.794h-9.065c.304 2.009 1.73 3.13 3.551 3.13 1.38 0 2.36-.513 3.341-1.471l1.66 1.472c-1.169 1.4-2.78 2.312-5.047 2.312-3.605 0-6.332-2.61-6.332-6.424zm-41.193-1.145c-1.625-.524-2.78-.871-2.78-1.752 0-.735.6-1.262 1.729-1.262 1.028 0 2.289.444 3.48 1.168l1.122-2.009c-1.308-.864-2.99-1.402-4.532-1.402-2.455 0-4.393 1.417-4.393 3.785 0 2.381 1.999 3.121 3.855 3.645 1.435.439 2.757.754 2.757 1.752 0 .898-.772 1.355-1.915 1.355-1.262 0-2.711-.514-4.042-1.519l-1.262 1.916c1.543 1.215 3.48 1.846 5.233 1.846 2.607 0 4.58-1.299 4.58-3.902 0-2.243-2.014-3.054-3.832-3.621m11.307 1.552h-3.097v-4.21h3.046c1.34 0 2.178.893 2.178 2.095 0 1.046-.784 2.115-2.126 2.115m.282-6.599h-6.208v12.336h2.828v-3.35h3.119c2.736 0 4.932-1.678 4.932-4.502 0-2.49-1.76-4.484-4.671-4.484M8.793 53.81c0 1.542-1.402 2.593-3.271 2.593-1.11 0-2.384-.493-2.384-1.845 0-1.274 1.123-1.94 2.827-1.94 1.099 0 2.104.21 2.828.49v.702zm-2.687-8.06c-2.01 0-3.34.42-4.696 1.028l.772 2.266c1.12-.467 2.148-.771 3.526-.771 1.963 0 3.037.934 3.037 2.64v.234c-.957-.304-1.914-.514-3.41-.514-2.69 0-5 1.164-5 4.065 0 2.537 2.09 3.83 4.393 3.83 1.869 0 3.154-.77 3.995-1.775v1.519h2.802V50.96c0-3.294-1.774-5.21-5.42-5.21zm29.75 8.06c0 1.542-1.402 2.593-3.271 2.593-1.109 0-2.383-.493-2.383-1.845 0-1.274 1.123-1.94 2.827-1.94 1.098 0 2.103.21 2.827.49v.702zm-2.687-8.06c-2.009 0-3.34.42-4.696 1.028l.772 2.266c1.121-.467 2.149-.771 3.528-.771 1.962 0 3.036.934 3.036 2.64v.234c-.958-.304-1.915-.514-3.411-.514-2.69 0-4.999 1.164-4.999 4.065 0 2.537 2.09 3.83 4.392 3.83 1.869 0 3.154-.77 3.995-1.775v1.519h2.803V50.96c0-3.294-1.775-5.21-5.42-5.21zm29.681 5.49c-.187-1.822-1.262-3.247-3.13-3.247-1.73 0-2.944 1.33-3.202 3.247h6.332zm-9.135.888c0-3.543 2.486-6.448 6.028-6.448 3.925 0 5.91 3.084 5.91 6.635 0 .257-.023.514-.046.794h-9.065c.304 2.009 1.729 3.13 3.55 3.13 1.38 0 2.36-.513 3.342-1.471l1.659 1.472c-1.17 1.4-2.781 2.312-5.046 2.312-3.605 0-6.332-2.61-6.332-6.424zM22.66 58.272h2.827V45.937H22.66zm18.256-12.335h2.827v1.915c.794-1.168 1.939-2.172 3.855-2.172 2.78 0 4.392 1.869 4.392 4.743v7.849h-2.827v-7.01c0-1.914-.958-3.012-2.64-3.012-1.635 0-2.78 1.145-2.78 3.06v6.962h-2.827V45.937zm-24.205 2.78v-2.78h-2.827v12.335h2.827v-4.695c0-3.052 1.544-4.948 4.37-4.883v-2.99c-2.174-.094-3.599 1.168-4.37 3.013"/></g></svg>